<svg xmlns="http://www.w3.org/2000/svg" viewBox="0 0 32 32" fill="none">
  <rect width="32" height="32" rx="8" fill="#171717"/>
  <path d="M16 6C12.13 6 9 9.13 9 13c0 2.12 1.02 4.02 2.63 5.31L9 24l3.37-2.69c.53.15 1.08.23 1.63.23 3.87 0 7-3.13 7-7s-3.13-7-7-7zm0 10c-.55 0-1-.45-1-1s.45-1 1-1 1 .45 1 1-.45 1-1 1z" fill="#22c55e"/>
  <circle cx="16" cy="14" r="2" fill="#22c55e" opacity="0.5"/>
  <path d="M16 8v2M22 16h-2M16 22v-2M10 16h2" stroke="#22c55e" stroke-width="1.5" stroke-linecap="round"/>
</svg>